<?xml version="1.0" encoding="UTF-8"?><svg id="Layer_1" xmlns="http://www.w3.org/2000/svg" viewBox="0 0 1000 1000"><defs><style>.cls-1{fill:#fe7f28;}.cls-2{fill:#fef100;}.cls-3{fill:#fefd90;}</style></defs><rect x="1.96" y="0" width="1000" height="1000"/><g><path class="cls-2" d="M403.69,754.08c-6.88-3.26-14.36-4.78-21.38-7.92-16.65-7.46-27.92-19.72-37.08-34.98-9.6-15.97-20.03-31.45-28.57-48.05-1.29-2.52-2.24-5.24-3.15-7.93-3.23-9.58-6.87-19.06-9.37-28.84-1.62-6.33-1.52-13.09-2.19-19.66-.08-.84,.46-1.83-.9-2.66-.75,2.7-3.23,4.54-2.8,7.61,0,0-.01-.06-.01-.06-2.32,1.39-2.88,3.75-3.34,6.15-3.14,2.46-2.43,6.85-4.88,9.67-1.05,1.22-1.82,3.05-3.73,2.68-4.03-.78-6.05,2.03-8.86,3.98-3.26,2.27-7.41,4.82-11.04,4.63-5.76-.3-8.16,3.97-11.27,6.63-2.33,1.99-3.88,4.21-7.12,3.52-3.41-.73-3.94-3.85-4.89-6.92-2.5,1.02-5.34,4.04-7.64,1.06-2.42-3.13-5.59-6.29-4.73-11.04,1.71-9.47,5.06-17.94,11.8-25.26,4.58-4.97,8.23-10.86,11.51-16.97,6.12-11.39,13.14-22.26,20.63-32.85,3.63-5.12,6.45-10.92,8.44-17,1.04-3.18,1.99-6.42,3.45-9.41,1.11-2.27,2.01-4.98,5.29-5.5,2.26-.36,3.17-2.43,4.09-4.36,5.36-11.14,11.03-22,19.49-31.34,9.38-10.35,19.04-20.23,31.46-26.85,4.18-2.22,8.8-3.72,13.35-5.11,11.69-3.57,21.64-9.57,28.87-19.63,.74-1.02,1.7-2.96,2.27-2.86,4.66,.81,5.97-4.08,9-5.08,4.13-1.36,5.35-5.33,8.69-7.1,2.05-1.08,3.8-3.29,6.32-.66,1.75,1.83,2.59-.4,3.44-1.26,4.01-4.03,6.04-9.56,10.34-13.49,1.41-1.29,2.72-2.77,4.45-2.97,2.58-.3,3.6-1.88,4.43-3.86,.74-1.75,1.2-3.45,3.69-3.69,3.27-.31,3.62-3.08,4.47-5.7,1.38-4.24-.56-9.14,2.76-12.91,1.83,.08,3.65,.15,5.48,.23,.84,3.24,3,.75,4.28,.72,5.38-.12,10.83,1.06,16.14-.69,3.65,.57,5.88-2.73,8.85-3.43,11.3-2.63,16.94-12.41,25.2-18.86,4.29-3.34,6.78-8.5,11.7-11.01,5.39-2.75,8.15-7.32,9.56-12.95,.91-3.64,1.47-7.33,2.04-11.04,.83-5.43,2.98-10.23,8.14-13.34,2.61-1.57,5.26-4.07,4.27-7.64-.97-3.49-4.29-2.87-7.06-2.91-5.46-.07-7.17-1.89-7.46-7.95-.39-8.11,1.79-15.86,3.5-23.67,.53-2.42,.89-4.73-1.51-6.12-2.47-1.44-5.02-1.27-7.15,.97-1.02,1.07-2.03,2.15-3.12,3.16-5.09,4.72-11.18,7.21-18.03,8-8.34-.02-16.69-.04-25.03-.06-3.79,.1-7.37-.42-10.01-3.53-1.32-1.55-3.14-1.38-4.87-1.56-.42-5.55-2.89-10.22-6.16-14.55,1.66,4.89,4.48,9.33,5.21,14.54-3.77,3.57-3.16,9.13-3.45,12.99-.83,11.17-3.71,21.58-7.7,31.75-3.18,8.12-8.82,14.49-16.59,18.78-4.69-1.95-9.44-3.73-9.96-9.97-.16-1.98-2.32-3.48-1.81-5.78,0-7.39,0-14.78,0-22.18,1.64-8.08,2.31-16.54,5.2-24.15,2.83-7.47,5.82-15.13,10.51-21.81,1.53-2.17,5.94-1.6,9.02,1.09,.33,.29,.57,.84,1.23,.33,.23-1.71-1.08-2.79-1.9-4.06,.71-1.45,2.05,.85,2.73-.48-.22-1.82-2.54-.31-2.92-1.88,1.92-5.84,.1-11.84,.75-17.74,.1-.92,.26-2.02-1.18-2.19-3.19-1.4-3.5-5.67-6.86-6.9-.26-2.3-1.33-4.29-2.67-6.05-2.8-3.69-.08-7.66-.82-11.6-1.53-8.18,1.25-15.9,6.15-22.48,1.94-2.6,5.02-4.52,8.91-4.35,10.27,.44,20.26,2.88,30.42,4.17,14.3,1.81,28.1,.03,41.43-4.53,10.35-3.54,19.24-3.77,27.09,4.9,1.1,1.22,3.2,2.24,4.8,2.18,4.28-.17,4.66,2.86,5.34,5.68,1.13,4.71,3.18,8.42,7.79,10.86,3.68,1.95,9.22,3,10.4,6.82,2.41,7.83,8,12.98,12.8,18.88,1.25,1.54,2.44,2.21,3.72-.12,.86-1.57,2.49-1.54,3.94-.98,1.58,.62,1.95,2.06,1.95,3.65,.02,10.46,.07,20.91,.11,31.37l-.14,.12c-2.63,1.13-2.29,3.59-1.85,5.47,1.65,7.07,.61,14.2,.93,21.29,.08,8.81-3.61,16.87-5.13,25.37-2.3,12.87-5.57,25.55-8.14,38.39-2.19,10.93-6.26,21.73-11.84,31.63-3.21,5.7-6.36,11.29-7.54,17.85-.91,5.06,3.33,6.07,6.07,8.12,2.54,1.9,5.42,3.36,8.2,4.93,10.43,5.89,14.81,17.04,22.27,25.5,7.99,9.06,12.22,20.78,21.27,29.15,3.64,3.37,7.88,5.83,11.58,9.08,1.7,1.5,3.28,2.9,4.53,4.78,5.98,9.03,14.06,15.95,22.49,22.58,10.17,8.01,18.98,17.45,27.22,27.39,1.49,1.8,1.51,4.78,2.43,7.12,2.13,5.4,5.23,10.31,8.9,14.72,6.18,7.42,8.7,16.17,10.28,25.38,.11,.64,.06,1.78,.3,1.85,8.22,2.13,6.48,10.07,8.3,15.39,4.27,12.46,9.64,23.85,20.74,31.61,2.83,1.98,5.6,3.97,7,7.15,3.42,7.72,9.83,13.94,12.06,22.06,2.43,8.86,5.76,17.54,6.87,26.75,.08,5.34,.17,10.68,.25,16.03,2.32,6.22-1.76,11.12-3.52,16.47-.36,1.09-1.47,2.47-2.92,2.27-7.94-1.11-16.26-.43-23.52-4.85-1.71-1.68-3.01-4.04-6.96-3.86,2.55,1.39,3.47,2.88,3.17,4.94-4.89,11.75-13.52,18.91-25.39,23.76-20.81,8.5-42.48,13.53-64.18,18.74-4.53,1.09-9.18,2.59-12.97,5.68-.35-.04-.7-.08-1.04-.12-13.54-.09-24.69,8.63-37.77,10.25l-21.6,3.85c-4.89,.5-9.9-1.03-14.7,.9-6.2,1.67-12.56,1.87-18.91,2.08-5.78-.06-11.56-.11-17.34-.17,0,0-.03,0-.03,0-6.17-1.78-12.51-.25-18.74-.98,0,0-.03,0-.03,0-5.41-1.72-10.98-.39-16.45-.85-12.56-.53-24.68-3.66-36.92-6.13-5.75-1.16-11.47-2.43-17.21-3.66-1.75-1.34-3.79-1.53-5.89-1.99-7.26-1.57-15.11-.4-21.8-4.61Zm226.26-128.81c-.45,.1-.91,.21-1.36,.31,.11,.18,.22,.37,.33,.55,.32-.31,.64-.61,.97-.92,.31-.32,.62-.65,.93-.97-.18-.11-.36-.23-.55-.34-.11,.46-.21,.91-.32,1.37Zm-315.27-10.87c-.11-.46-.21-.91-.32-1.37-.18,.11-.36,.23-.55,.34,.31,.32,.62,.65,.93,.97,.12,.45,.24,.89,.36,1.34,.18-.12,.35-.25,.53-.37-.32-.3-.64-.61-.95-.91Zm381.42,56.24c.32,.31,.65,.62,.97,.93,.11-.18,.23-.36,.34-.55-.46-.11-.91-.21-1.37-.32-.3-.32-.61-.64-.91-.95-.12,.18-.25,.35-.37,.53,.45,.12,.89,.24,1.34,.36Zm-341.93-15.7c.66,.78,1.39,1.26,2.39,.57-.62-.4-1.23-.8-1.85-1.2-.41-.6-.82-1.21-1.22-1.81-.52,1.02-.17,1.8,.68,2.45Zm-42.96-45.07c.4,.62,.79,1.24,1.19,1.86,.7-1.01,.22-1.73-.56-2.39-.96-1.11-2.08-1.19-3.64-.43,1.19,.38,2.1,.68,3.01,.96Zm33.14,36.12c-.32-.31-.65-.62-.97-.93-.11,.18-.23,.36-.34,.55,.46,.11,.91,.21,1.37,.32,.02,1.54,.55,2.39,2.66,1.57-1.09-.61-1.9-1.06-2.72-1.51Zm328.07,1.91c.04,1.37,.24,2.63,1.84,3.19,.21-1.69-.57-2.59-1.91-3.14,.03-1.62,.03-3.21-1.85-4.22-.07,1.88,.6,3.18,1.91,4.16Zm40.53,37.51c-.66-.78-1.39-1.26-2.39-.57l1.85,1.2c.53,.74,.93,1.86,2.12,1.24,.44-.23,.97-1.15,.83-1.49-.51-1.22-1.53-.61-2.41-.38Zm-156.17-17.71c6.8-1.34,13.09-3.96,18.93-7.7-6.15,2.94-13.16,3.74-18.88,7.76-4.41,.57-8.21,2.62-11.91,4.91-8.3,1.52-17.1,1.79-24.81,4.82-14.5,5.7-29.59,5.63-44.45,5.65-10.53,.01-21.3-2.29-31.7-5.12-3.22-.88-6.32-2.41-10.44-2.13,9.7,4.16,19.4,5.24,29.05,6.68,5.97,.89,11.9,3.02,17.94,1.81,5.57-1.12,11.11-.8,16.67-.79,3.81,0,7.47-.51,11.13-1.49,8.32-2.23,16.37-5.3,25.19-5.79,3.76-.21,7.99-1.22,11.38-3.7,4.5-.34,8.38-2.2,11.91-4.91Zm-22.15-430.18c1.78,1.69,5.06-.23,6.4,2.81,.76,1.72,2.61,1.56,4.29,1.6,10.09,.23,16.79-6.92,16.39-17.57-.18-4.87-4.08-8.65-8.9-9.18-6.67-.73-8.66,2.89-11.96,9.67-2.07,4.25-1.09,9.99-6.11,12.8-2.6,5.51-5.92,10.81-5.13,17.31,.71-4.88,2.88-9.28,4.79-13.74,.56-1.32,.8-2.43,.22-3.7Zm-109.54,436.44c-10.77-4.13-21.1-9.87-32.75-11.05-11.54-1.18-22.86-3.57-34.28-5.59,22.16,6.28,45.79,6.3,67.03,16.64Zm230.79-89.46c-2.52,4-3.87,8.56-4.86,13.26,2.69-3.96,4.28-8.33,4.86-13.26Zm-54.34,60.81c-3.65,.26-6.48,2.33-9.31,4.37,3.53-.53,6.42-2.45,9.31-4.37Zm59.61-19.2c-.52,3.57,.9,6.44,3.42,8.86l-3.42-8.86Zm-15.56-18.07c2.03-3.59,3.77-5.8,4.18-10.08-2.03,3.59-3.77,5.8-4.18,10.08Zm14.22,16.03c-1.17-2.36-2.34-4.71-3.51-7.07-.2,3.01,1.29,5.24,3.51,7.07Zm-75.18,30c2.02-.88,4.04-1.76,6.64-2.89-3.29-.67-5.18,.91-6.64,2.89Zm29.33-16.05c-2.83,.22-4.47,1.23-6.74,3.01,3.04-.17,4.65-1.23,6.74-3.01Zm-31.08,17.16c-1.73-.68-2.68,.34-3.79,1.35,1.74,.68,2.69-.32,3.79-1.35Zm-230.96-4.64c-1.43-.78-2.33-2.22-4.28-.96,1.45,.36,2.2,1.74,4.28,.96Zm-13.1-9.79c-1.06-1.07-2-1.99-3.73-1.39,1.06,1.07,2,1.99,3.73,1.39Zm263.96,2.82c1.7,1,2.66-.3,3.77-1.08-.1-.12-.21-.24-.28-.32-1.51-.34-2.42,.62-3.49,1.41Zm-299.18-42.94c-.41,.92-.69,1.29-.73,1.69-.09,.86,.57,1.11,1.21,.98,.22-.04,.46-.79,.41-1.18-.06-.42-.45-.8-.89-1.49ZM453.8,246.34c-.38,2,.27,3.09,2.05,4.27-.08-1.95-.84-2.99-2.05-4.27Zm190.87,362.46c-.13-.27-.25-.54-.38-.8-.16,.27-.41,.52-.47,.8-.08,.37-.23,.96,.49,.83,.17-.03,.25-.54,.36-.83Zm-3.29,5c.13-.54,.23-.99,.34-1.45-.22-.05-.61-.18-.64-.13-.15,.27-.28,.6-.25,.9,.02,.2,.3,.38,.55,.68Zm-312.89,15.78l-.45-.84c-.15,.25-.46,.55-.41,.75,.09,.35,.41,.64,.63,.95,.08-.28,.15-.57,.23-.86Zm391.91,62.77c.27-.13,.54-.25,.8-.38-.27-.16-.52-.41-.8-.47-.37-.08-.96-.23-.83,.49,.03,.17,.54,.25,.83,.36Zm9.77,7.34c-.62-.14-1.07-.25-1.53-.35-.03,.23-.14,.62-.06,.67,.26,.16,.6,.26,.9,.23,.19-.01,.36-.28,.68-.55Zm-399.71-67.14l-.45-.84c-.15,.25-.46,.55-.41,.75,.09,.35,.41,.64,.63,.95,.08-.28,.15-.57,.23-.86Zm292.87-1.07c-.31-.1-.6-.29-.86-.26-.3,.03-.58,.25-.86,.39,.38,.14,.75,.35,1.14,.38,.18,.02,.38-.32,.59-.51Zm-291.7,3.14c.03,.63-.01,1.08,.09,1.5,.11,.49,.46,.54,.67,.08,.12-.26,.07-.65-.03-.93-.07-.2-.35-.33-.72-.65Zm287.14-.57c-.36,.21-.74,.43-1.12,.65,.27,.11,.55,.33,.81,.32,.29-.01,.57-.23,.86-.36-.16-.18-.32-.35-.55-.61Zm-3.7,3.08c.45-.18,.89-.35,1.32-.52-.19-.17-.37-.45-.57-.47-.3-.03-.63,.11-.9,.25-.06,.03,.08,.42,.15,.74Zm50.98,1.32c.12-.29,.33-.57,.32-.83-.01-.29-.22-.81-.36-.82-.67-.03-.55,.52-.45,.91,.07,.27,.31,.49,.49,.74Zm-340.52-12.83l-.45-.84c-.15,.25-.46,.55-.41,.75,.09,.35,.41,.64,.63,.95,.08-.28,.15-.57,.23-.86Zm350.4,28.64c.12-.29,.33-.57,.32-.83-.01-.29-.22-.81-.36-.82-.67-.03-.55,.52-.45,.91,.07,.27,.31,.49,.48,.74Zm42.39,35.54c-.62-.14-1.07-.25-1.53-.35-.03,.23-.14,.62-.06,.67,.26,.16,.6,.26,.9,.23,.19-.01,.36-.28,.68-.55Zm-50.76-50.25c.03,.63-.01,1.08,.09,1.5,.11,.49,.46,.54,.67,.08,.12-.26,.07-.65-.03-.93-.07-.2-.35-.33-.72-.65Zm13.1,18.23c-.32,.22-.54,.38-.76,.54,.28,.14,.56,.37,.85,.4,.27,.03,.56-.15,.83-.24-.32-.24-.64-.48-.93-.7Zm5.05,3.37c-.62-.14-1.07-.25-1.53-.35-.03,.23-.14,.62-.06,.67,.26,.16,.6,.26,.9,.23,.19-.01,.36-.28,.68-.55Zm2.91,1.97c-.54-.13-.99-.23-1.45-.34-.05,.22-.18,.61-.13,.64,.27,.15,.6,.28,.9,.25,.2-.02,.38-.3,.68-.55Zm-381.86-57.19c-.14-.28-.29-.57-.43-.85-.16,.22-.49,.48-.45,.64,.1,.38,.38,.7,.59,1.05,.09-.28,.19-.55,.29-.84Zm347.47,8.94c-.14,.1-.38,.23-.36,.28,.08,.27,.22,.51,.34,.77,.13-.08,.38-.2,.37-.24-.08-.28-.22-.53-.35-.8ZM451.01,248.34c-.34-.13-.69-.37-1.03-.37-.46,0-.55,.34-.22,.67,.26,.26,.58,.45,.88,.67,.1-.27,.2-.53,.37-.97Z"/><path class="cls-3" d="M600.3,279.53c-.32-7.09,.72-14.22-.93-21.29-.44-1.88-.77-4.34,1.85-5.47,.11,.41,.22,.82,.34,1.24,.16-.13,.47-.34,.45-.38-.18-.34-.42-.65-.65-.97-.04-10.46-.08-20.91-.11-31.37,0-1.59-.38-3.03-1.95-3.65-1.45-.57-3.08-.59-3.94,.98-1.28,2.33-2.47,1.66-3.72,.12-4.8-5.9-10.39-11.05-12.8-18.88-1.18-3.82-6.71-4.86-10.4-6.82-4.6-2.44-6.66-6.15-7.79-10.86-.68-2.81-1.06-5.84-5.34-5.68-1.59,.06-3.69-.96-4.8-2.18-7.84-8.67-16.74-8.44-27.09-4.9-13.33,4.56-27.13,6.34-41.43,4.53-10.15-1.28-20.14-3.73-30.42-4.17-3.89-.17-6.97,1.75-8.91,4.35-4.9,6.57-7.68,14.3-6.15,22.48,.74,3.93-1.99,7.91,.82,11.6,1.34,1.76,2.42,3.76,2.67,6.05-.33,3.86-3.76,6.08-5.8,8.52-2.09,2.48-6.78-.29-9.9-1.51-2.85-1.12-4.19,2.03-6.85,1-2.76-1.07-2.2-4.51-4.78-5.39-1.35-.46-2.17,.59-3.24,.96-5.07,1.79-8.03-.43-7.78-5.68,.03-.61,1.25-1.13,.4-1.58-6.65-3.52-2.63-8.27-1.22-12.41,.8-2.35,.46-2.79-1.66-3.81-3.48-1.67-8.51-2.77-5.58-8.9,.51-1.07-.52-3.07-1.18-4.48-.98-2.1-1.31-4.33,.37-5.84,4.11-3.69,.5-5.35-1.63-7.48-.35-.35-.75-.65-1.09-1-2.06-2.15-1.82-18.49,.39-20.51,3.14-2.88,5.52-5.83,5.43-10.62-.07-3.57,3.12-6.41,3.89-10.06,.46-2.22,1.03-4.04,.24-6.45-1.79-5.49,.73-7.57,6.28-7.77,3.97-.14,6.74-3.94,8.89-7.2,1.22-1.86,2.4-3.26,4.24-4.59,1.86-1.35,4.35-2.53,4.16-6.13-.2-3.76,3.01-5.34,6.44-3.48,2.47,1.33,3.4,.4,4.15-1.63,1.18-3.23,4.22-4.25,6.57-3.19,3.11,1.41,4.12-.46,5.57-1.98,3.35-3.51,7.08-4.63,10.97-1.25,1.62,1.41,2.55,.47,3.81,.04,.15-.05,.34-.07,.43-.17,4.1-5.07,10.9-.18,14.38-3.06,5.45-4.51,10.49-2.49,14.69-.36,4.3,2.19,8.43,.37,11.36-.25,6.36-1.35,12.88,.18,19.38-2.52,4.1-1.69,10.18,1.83,15.79,1.27,2.6-.26,4.97,3.27,8.49,3.66,2.19,.24,4.07,1.37,6.64,.61,2.59-.77,4.82,.94,6.12,3.7,.64-1.7,.72-3.14,1.15-4.52,2.37-7.66,2.65-6.94,9.38-3.14,6.26,3.54,10.73,11.21,19.57,9.87,.98-.15,2.19,1.13,3.28,1.77,2.74,1.61,4.68,3.8,9,2.48,2.98-.91,7.19,2.2,10.85,3.49,1.05,.37,2.13,.95,3.19,.93,7.18-.1,7.6-.11,7.02,7.04-.35,4.28,2.24,7.64,2.21,11.67-.01,1.47,1.36,.99,2.25,1.14,5.65,.98,6.84,2.43,5.11,7.76-.88,2.7-.21,2.9,2.14,3.18,5.09,.61,6.82,3.76,4.67,7.98-2.99,5.87-1.46,10.08,4.55,12.73,1.99,.88,4.45,1.37,4,4.57-.27,1.91,1.6,1.1,2.49,1.5,4,1.81,4.75,4.65,1.77,7.8-1.43,1.52-2.1,2.31-.65,4.59,1.06,1.67,.83,4.53-1.47,6.6-3.36,3.03-3.14,8.32,0,12.15,1.4,1.71,.89,9.89-.56,12.06-2.48,3.71-2.33,7.77-1.15,11.87,1.26,4.39-.4,8.41-1.55,12.49-1.58,5.59-5.72,10.43-4.89,16.75,.12,.91,.27,1.9-.7,2.68-4.04,3.29-7.18,7.74-12.88,8.75-2.66,.47-5.11,.83-5.6,5.24-.61,5.39-6.2,6.82-11.02,7.4-2.85,.35-5.9,.62-9.29-.58,0,4.77,.09,9.45-.05,14.13-.04,1.48,.98,3.3-.88,4.46Z"/><path class="cls-1" d="M593.32,765.65c13.08-1.62,24.22-10.35,37.77-10.25,.3,7.96-.82,15.96,.61,23.89,2.08,5.47,1.7,11.37,3.03,17.02,3.33,14.11,8.26,27.62,14.12,40.83,1.39,3.13,3.38,4.47,7.13,4.6,6.57,.22,11.75,4.64,17.46,7.37,10.85,5.19,16.4,15.39,23.05,24.67,5.98,8.35,7.79,18.15,11.15,27.43,1.19,3.28,.02,5.5-3.68,5.54-10.71,.13-20.84,3.85-31.37,5.06-1.53,.18-3.18,.81-4.43,1.72-8.83,6.43-19.49,6.71-29.53,9.14-4.18,1.01-7.88,3.53-12.57,2.99-3.4-.39-4.72-1.58-5.14-5.06-1.19-9.9-6.26-17.47-14.17-23.65-9.42-7.36-21.03-9.74-31.38-14.92-5.83-1.81-11.83-.21-17.72-.92-.39-.28-1.11-.56-1.12-.86-.08-4.1-.14-8.21-.01-12.31,.06-1.78,1.55-1.8,2.92-1.68,6.8,.57,12.92-2.28,19.24-3.98,11.51-3.08,22.01-8.53,32.42-14.19,3.47-1.89,4.59-4.69,3.89-8.04-1.54-7.45-.97-15.08-2.74-22.56-3.91-16.5-7.65-32.98-17.05-47.48-.87-1.34-1.84-2.66-1.89-4.37Zm63.98,99.26c7.19-.83,11.09,4.81,16.15,8.14-.34-5.95-6.42-9.2-16.15-8.14Zm.62,28.31c1.09-7.8,.96-15.46-2.48-22.76,1.96,7.46,2.57,15.08,2.48,22.76Zm-12.03-24.6c1.14,6.72,1.27,12.2-.44,18.62,2.74-4.21,2.95-13.87,.44-18.62Zm10.72,28.14c-1.96,.36-2.46,1.51-2.1,4.06,1.01-1.95,1.55-3.01,2.1-4.06Zm17.33-23.3c.24,1,.47,2,.79,3.35,.82-1.42,.84-2.42-.79-3.35Zm-19.8-5.69c-.16,.26-.44,.51-.44,.77-.02,.69-.08,1.93,.95,1.38,.86-.46-.06-1.46-.5-2.16Zm-2.02,34.46c.23,.14,.45,.29,.68,.43,.26-.29,.71-.57,.74-.88,.05-.59,1.17-1.52-.21-1.68-.31-.04-.8,1.39-1.21,2.14Zm-1.67,1.58s-.2,.34-.39,.67c.24,.09,.61,.33,.69,.25,.27-.25,.57-.6,.61-.94,.05-.45-.27-.54-.91,.02Z"/><path class="cls-1" d="M503.81,271.6c6.84-.79,12.93-3.28,18.03-8,1.08-1,2.1-2.09,3.12-3.16,2.13-2.24,4.68-2.4,7.15-.97,2.4,1.4,2.04,3.71,1.51,6.12-1.7,7.8-3.89,15.55-3.5,23.67,.29,6.07,2.01,7.88,7.46,7.95,2.77,.04,6.09-.59,7.06,2.91,.99,3.57-1.66,6.07-4.27,7.64-5.16,3.11-7.31,7.92-8.14,13.34-.57,3.71-1.13,7.4-2.04,11.04-1.41,5.63-4.17,10.2-9.56,12.95-4.92,2.51-7.41,7.67-11.7,11.01-8.26,6.45-13.9,16.23-25.2,18.86-2.97,.69-5.19,4-8.85,3.43-6.81-.01-13.61-.02-20.41-.03-1.83-.08-3.65-.15-5.48-.23-5.99-1.89-12.24-3.19-16.71-8.26-2.68-3.04-4.62-6.35-3.77-10.46,.32-1.54-.25-2.25-.9-3.33-3.71-6.24-2.56-12.61-.39-19.01,.51-1.51,1.54-2.98,2.8-3.13,2.68-.33,3.77-2.25,5.19-3.96,7.77-4.28,13.42-10.66,16.59-18.78,3.98-10.18,6.87-20.58,7.7-31.75,.29-3.87-.33-9.43,3.45-12.99,0,0,.47,.1,.47,.1l.47-.09c1.73,.18,3.55,0,4.87,1.56,2.64,3.11,6.22,3.63,10.01,3.53,8.34,1.36,16.68,1.28,25.03,.06Zm11.72,65.39c-1.25,3.11-2.51,6.23-3.76,9.34,3.18-2.5,3.78-5.86,3.64-9.46,1.38-1.13,.88-2.54,1.13-4.61-1.71,1.92-1.19,3.34-1.01,4.73Zm-25.05,24.35c-18.79,4.64-37.5,4.54-56.21-.87,3.65,1.63,7.32,3.24,11.14,3.84,10.87,1.71,21.88,1.3,32.82,.93,4.19-.14,8.77-.65,12.15-4,5.46,.76,9.38-2.94,14.18-4.09-.15-.42-.29-.84-.44-1.25-4.55,1.82-9.1,3.63-13.65,5.45Zm33.06-45.57c-3.21,5.29-5.46,10.89-5.86,17.08,1.95-5.69,3.91-11.39,5.86-17.08Zm-92.44,43.29c.94-.35,1.96,1.46,3.17,.23-.95-1.15-2-.87-3.17-.23Zm80.03-11.16c-.13,.18-.71,.1-1.03-.12-.29,.5-.6,.99-.86,1.5-.17,.35-.54,.92,.18,.98,1.07,.09,.8-1.01,1.71-2.36Zm-3.32,5.58c.31-.7,.65-1.35,.87-2.04,.21-.65-.57-.71-.69-.57-.37,.45-.53,1.06-.84,1.57-.38,.63,.17,.7,.65,1.03Z"/><path class="cls-1" d="M403.69,754.08c6.69,4.21,14.54,3.04,21.8,4.61,2.1,.45,4.15,.65,5.89,1.99,.09,3.15-3.13,4.19-4.27,6.8-3.61,8.21-.76,15.95,.83,23.7,2.78,13.55,8.38,26,15.8,37.69,2.17,3.43,4.19,6.7,7.84,8.84,2.89,1.7,4.52,4.64,3.26,7.94-1.26,3.28-4.42,4.07-7.73,3.82-8.77-.66-16.22,2.59-23.53,7.11-4.59,2.83-9.72,5.15-14.92,6.55-6.45,1.73-11.74,6.19-18.74,6.76-5.18,.42-9.42-.22-13.44-3.55-9.76-8.09-20.43-12.59-33.2-7.4-5.27,2.14-10.84,2.78-16.42,3.41-3.24,.36-4.78-1.08-4.17-4.24,.66-3.37,.93-6.73,1.04-10.16,.06-1.94,1.27-3.64,2.88-4.88,15.41-11.95,31.18-23.47,45.79-36.38,3.61-3.19,7.19-6.25,11.26-8.76,1.21-.75,2.6-1.71,3.9-1.69,5.08,.05,6.64-2.81,6.18-7.18-.75-7.1,3.05-13.07,4.56-19.6,1.22-5.29,3.14-10.4,5.41-15.35Zm-8.09,96.24c5.25-9.49,5.96-20.97,12.72-30.02,.37,2.32,.7,4.58,2.68,6.25-.68-2.89-1.35-5.78-2.18-9.34-8.33,9.98-8.79,22.33-13.21,33.1Zm-14.33,3.35c1.28-8.9-.89-18.1,2.61-26.81-4.7,8.61-2.3,17.83-2.61,26.81Zm34.67-21.33c-.62-.77-.08-2.34-2.05-2.71,.55,1.27,.24,2.54,2.05,2.71Zm-28.65-7.03c-.63-.64-1.35-.64-2.05-.2-.16,.1-.24,.68-.16,.74,.9,.59,1.53-.05,2.2-.54Z"/><path class="cls-3" d="M631.7,779.29c-1.44-7.93-.32-15.93-.61-23.89,.35,.04,.7,.08,1.04,.11-.14,7.93-.29,15.85-.43,23.78Z"/><path class="cls-3" d="M423.44,292.05c0,7.39,0,14.78,0,22.18-2.28-2.55-.96-5.62-.9-8.36,.1-4.6-1.26-9.34,.9-13.81Z"/><path class="cls-3" d="M446.87,221.16c1.43,.17,1.28,1.27,1.18,2.19-.65,5.9,1.17,11.9-.75,17.74-.28-6.64,1.04-13.32-.43-19.93Z"/><path class="cls-3" d="M557.65,881.12c5.88,.72,11.89-.88,17.72,.92-5.89-.62-11.91,1.21-17.72-.92Z"/><path class="cls-3" d="M501.99,771.32c6.23,.73,12.57-.8,18.74,.98-5.25,.04-10.49,.08-15.74,.11-1.13,0-2.34,.22-3-1.09Z"/><path class="cls-3" d="M520.77,772.31c5.78,.06,11.56,.11,17.34,.17-5.8,1.46-11.58,1.65-17.34-.17Z"/><path class="cls-3" d="M485.51,770.46c5.47,.46,11.04-.87,16.45,.85-5.48-.37-11.06,1.28-16.45-.85Z"/><path class="cls-3" d="M768.42,692.37c-.08-5.34-.17-10.68-.25-16.03,1.87,5.31,1.37,10.67,.25,16.03Z"/><path class="cls-3" d="M557.02,770.39c4.8-1.93,9.81-.4,14.7-.9-4.79,2.1-9.81,.4-14.7,.9Z"/><path class="cls-3" d="M298.24,611.65c-.43-3.06,2.05-4.9,2.8-7.61,1.36,.84,.82,1.83,.9,2.66-2.08,1.02-.15,5.03-3.7,4.94Z"/><path class="cls-3" d="M734.67,707.33c.3-2.06-.61-3.55-3.17-4.94,3.95-.17,5.25,2.18,6.96,3.86-1.46-.34-2.65,.3-3.79,1.08Z"/><path class="cls-3" d="M294.89,617.74c.46-2.4,1.02-4.76,3.34-6.15-.26,2.52-1.32,4.59-3.34,6.15Z"/><path d="M534.74,237.61c5.04-2.79,4.07-8.53,6.14-12.77,3.3-6.78,5.29-10.4,11.96-9.67,4.81,.53,8.71,4.3,8.9,9.18,.39,10.65-6.31,17.8-16.39,17.57-1.68-.04-3.53,.11-4.29-1.6-1.34-3.03-4.62-1.12-6.4-2.81l.1,.1Z"/><path class="cls-3" d="M544.87,672.59c-3.38,2.48-7.61,3.49-11.38,3.7-8.82,.49-16.87,3.57-25.19,5.79-3.66,.98-7.32,1.49-11.13,1.49-5.55-.01-11.09-.33-16.67,.79-6.04,1.21-11.97-.92-17.94-1.81-9.64-1.44-19.35-2.52-29.05-6.68,4.13-.28,7.22,1.25,10.44,2.13,10.39,2.83,21.16,5.13,31.7,5.12,14.86-.02,29.95,.06,44.45-5.65,7.71-3.03,16.5-3.3,24.81-4.82,0,0-.05-.06-.05-.06Z"/><path class="cls-3" d="M425.1,673.95c-21.24-10.35-44.88-10.36-67.03-16.64,11.42,2.02,22.74,4.41,34.28,5.59,11.65,1.19,21.98,6.93,32.75,11.05Z"/><path class="cls-3" d="M556.84,667.75c5.72-4.02,12.73-4.83,18.88-7.76-5.84,3.74-12.13,6.36-18.93,7.7l.05,.06Z"/><path class="cls-3" d="M503.81,271.6c-8.35,1.23-16.69,1.3-25.03-.06,8.34,.02,16.69,.04,25.03,.06Z"/><path d="M534.64,237.5c.58,1.28,.35,2.38-.22,3.7-1.9,4.46-4.08,8.85-4.79,13.74-.79-6.49,2.53-11.79,5.12-17.32-.01-.02-.11-.12-.11-.12Z"/><path class="cls-3" d="M655.88,584.49c-.57,4.93-2.17,9.3-4.86,13.26,.99-4.7,2.34-9.26,4.86-13.26Z"/><path class="cls-3" d="M454.46,378.36c6.8,.01,13.61,.02,20.41,.03-5.3,1.75-10.76,.56-16.13,.69-1.28,.03-3.44,2.52-4.28-.72Z"/><path d="M463.9,266.46l-.47,.09s-.47-.1-.47-.1c-.74-5.21-3.55-9.66-5.21-14.54,3.27,4.33,5.74,9,6.16,14.55Z"/><path class="cls-3" d="M556.79,667.68c-3.53,2.71-7.41,4.56-11.91,4.91,0,0,.05,.06,.05,.06,3.7-2.29,7.5-4.34,11.91-4.91,0,0-.05-.06-.05-.06Z"/><path class="cls-3" d="M601.54,645.3c-2.89,1.92-5.78,3.84-9.31,4.37,2.83-2.04,5.66-4.11,9.31-4.37Z"/><path class="cls-3" d="M661.15,626.1l3.42,8.86c-2.53-2.42-3.94-5.28-3.42-8.86Z"/><path class="cls-3" d="M645.59,608.03c.41-4.28,2.15-6.5,4.18-10.08-.41,4.28-2.15,6.5-4.18,10.08Z"/><path class="cls-3" d="M659.81,624.06c-2.22-1.83-3.71-4.06-3.51-7.07,1.17,2.36,2.34,4.71,3.51,7.07Z"/><path class="cls-3" d="M584.63,654.06c1.46-1.98,3.35-3.56,6.64-2.89-2.6,1.13-4.62,2.01-6.64,2.89Z"/><path class="cls-3" d="M613.96,638.01c-2.08,1.78-3.7,2.84-6.74,3.01,2.26-1.78,3.9-2.79,6.74-3.01Z"/><path class="cls-3" d="M712.96,685.4c.87-.22,1.9-.84,2.41,.38,.14,.34-.39,1.26-.83,1.49-1.19,.62-1.59-.5-2.12-1.24,.19-.2,.37-.41,.54-.63Z"/><path class="cls-3" d="M582.88,655.17c-1.1,1.02-2.05,2.03-3.79,1.35,1.11-1.01,2.05-2.03,3.79-1.35Z"/><path class="cls-3" d="M672.43,647.89c-1.32-.99-1.98-2.28-1.91-4.16,1.88,1.01,1.88,2.6,1.85,4.22l.06-.06Z"/><path class="cls-3" d="M351.92,650.52c-2.08,.78-2.83-.6-4.28-.96,1.95-1.26,2.85,.18,4.28,.96Z"/><path class="cls-3" d="M338.82,640.73c-1.73,.6-2.68-.32-3.73-1.39,1.73-.6,2.68,.32,3.73,1.39Z"/><path class="cls-3" d="M602.78,643.55c1.07-.78,1.98-1.75,3.49-1.41,.08,.09,.18,.21,.28,.32-1.11,.78-2.07,2.08-3.77,1.08Z"/><path class="cls-3" d="M672.36,647.95c1.33,.55,2.11,1.45,1.91,3.14-1.6-.56-1.8-1.83-1.84-3.19,0,0-.06,.06-.06,.06Z"/><path class="cls-3" d="M303.61,600.62c.43,.69,.83,1.07,.89,1.49,.05,.39-.19,1.14-.41,1.18-.64,.12-1.3-.12-1.21-.98,.04-.4,.32-.77,.73-1.69Z"/><path d="M453.8,246.34c1.21,1.28,1.97,2.33,2.05,4.27-1.78-1.18-2.43-2.27-2.05-4.27Z"/><path class="cls-3" d="M344.36,645.98c.81,.45,1.62,.9,2.72,1.51-2.11,.82-2.64-.03-2.66-1.57l-.06,.06Z"/><path class="cls-3" d="M311.21,609.88c-.91-.29-1.82-.59-3.01-.97,1.56-.75,2.68-.68,3.64,.43-.22,.17-.43,.35-.63,.54Z"/><path class="cls-3" d="M644.68,608.81c-.12,.29-.2,.8-.37,.83-.71,.13-.57-.46-.49-.83,.06-.29,.31-.54,.47-.8,.13,.27,.25,.54,.38,.81Z"/><path class="cls-3" d="M311.84,609.34c.78,.66,1.27,1.39,.56,2.39-.4-.62-.79-1.24-1.19-1.86,.2-.19,.41-.37,.63-.53Z"/><path class="cls-3" d="M712.42,686.03l-1.85-1.2c1.01-.69,1.74-.21,2.39,.57-.17,.22-.35,.43-.54,.63Z"/><path class="cls-3" d="M641.39,613.81c-.25-.29-.54-.47-.55-.68-.03-.3,.11-.63,.25-.9,.03-.06,.42,.08,.64,.13-.11,.45-.21,.91-.34,1.45Z"/><path class="cls-3" d="M328.5,629.59c-.08,.29-.15,.57-.23,.86-.22-.31-.54-.6-.63-.95-.05-.2,.26-.5,.41-.75,.15,.28,.3,.56,.46,.84Z"/><path class="cls-3" d="M720.41,692.36c-.29-.12-.8-.2-.83-.37-.13-.71,.46-.57,.83-.49,.29,.06,.54,.31,.8,.47-.27,.13-.54,.25-.81,.38Z"/><path class="cls-3" d="M730.19,699.69c-.32,.27-.49,.54-.68,.55-.3,.02-.64-.08-.9-.23-.08-.05,.03-.44,.06-.67,.45,.1,.91,.21,1.53,.35Z"/><path class="cls-3" d="M330.48,632.55c-.08,.29-.15,.57-.23,.86-.22-.31-.54-.6-.63-.95-.05-.2,.26-.5,.41-.75,.15,.28,.3,.56,.46,.84Z"/><path class="cls-3" d="M623.34,631.48c-.21,.19-.41,.53-.59,.51-.39-.03-.76-.24-1.14-.38,.29-.14,.56-.36,.86-.39,.27-.03,.55,.16,.86,.26Z"/><path class="cls-3" d="M331.64,634.63c.37,.32,.65,.45,.72,.65,.1,.28,.15,.67,.03,.93-.21,.46-.55,.41-.67-.08-.1-.42-.06-.87-.09-1.5Z"/><path class="cls-3" d="M618.78,634.06c.23,.26,.39,.43,.55,.61-.29,.13-.57,.35-.86,.36-.27,0-.54-.2-.81-.32,.38-.22,.76-.44,1.12-.65Z"/><path class="cls-3" d="M615.08,637.14c-.07-.32-.2-.71-.15-.74,.27-.15,.6-.28,.9-.25,.2,.02,.38,.3,.57,.47-.44,.17-.87,.34-1.32,.52Z"/><path class="cls-3" d="M666.06,638.46c-.17-.25-.42-.47-.49-.74-.1-.39-.22-.94,.45-.91,.14,0,.35,.53,.36,.82,.01,.27-.2,.54-.32,.83Z"/><path class="cls-3" d="M325.54,625.64c-.08,.29-.15,.57-.23,.86-.22-.31-.54-.6-.63-.95-.05-.2,.26-.5,.41-.75,.15,.28,.3,.56,.46,.84Z"/><path class="cls-3" d="M354.17,654.94c-.85-.64-1.2-1.42-.68-2.45,.41,.6,.82,1.21,1.22,1.81-.19,.2-.37,.41-.54,.63Z"/><path class="cls-3" d="M675.94,654.27c-.17-.25-.42-.47-.48-.74-.1-.39-.22-.94,.45-.91,.14,0,.35,.53,.36,.82,.01,.27-.2,.54-.32,.83Z"/><path class="cls-3" d="M718.33,689.81c-.32,.27-.49,.54-.68,.55-.3,.02-.64-.08-.9-.23-.08-.05,.03-.44,.06-.67,.45,.1,.91,.21,1.53,.35Z"/><path class="cls-3" d="M354.71,654.31c.62,.4,1.23,.8,1.85,1.2-1.01,.69-1.74,.21-2.39-.57,.17-.22,.35-.43,.54-.63Z"/><path class="cls-3" d="M667.57,639.56c.37,.32,.65,.45,.72,.65,.1,.28,.15,.67,.03,.93-.21,.46-.55,.41-.67-.08-.1-.42-.06-.87-.09-1.5Z"/><path class="cls-3" d="M680.67,657.79c.29,.22,.61,.46,.93,.7-.28,.09-.57,.27-.83,.24-.29-.03-.57-.26-.85-.4,.22-.16,.44-.31,.76-.54Z"/><path class="cls-3" d="M685.72,661.16c-.32,.27-.49,.54-.68,.55-.3,.02-.64-.08-.9-.23-.08-.05,.03-.44,.06-.67,.45,.1,.91,.21,1.53,.35Z"/><path class="cls-3" d="M688.64,663.13c-.29,.25-.47,.54-.68,.55-.3,.03-.63-.11-.9-.25-.06-.03,.08-.42,.13-.64,.46,.11,.91,.21,1.45,.34Z"/><path class="cls-3" d="M306.78,605.94c-.1,.28-.19,.56-.29,.83-.21-.35-.49-.67-.59-1.05-.04-.16,.29-.42,.45-.64,.14,.28,.29,.57,.42,.86Z"/><path class="cls-3" d="M696.1,670.64c-.45-.12-.89-.24-1.34-.36,.12-.18,.25-.35,.37-.53,.3,.32,.61,.64,.91,.95l.06-.06Z"/><path class="cls-3" d="M696.05,670.71c.46,.11,.91,.21,1.37,.32-.11,.18-.23,.36-.34,.55-.32-.31-.65-.62-.97-.93,0,0-.06,.06-.06,.06Z"/><path class="cls-3" d="M344.41,645.92c-.46-.11-.91-.21-1.37-.32,.11-.18,.23-.36,.34-.55,.32,.31,.65,.62,.97,.93,0,0,.06-.06,.06-.06Z"/><path class="cls-3" d="M654.25,614.87c.12,.27,.26,.53,.35,.8,.01,.04-.24,.16-.37,.24-.12-.25-.26-.5-.34-.77-.01-.05,.23-.18,.36-.28Z"/><path class="cls-3" d="M314.68,614.4c.32,.3,.64,.61,.95,.91-.18,.12-.35,.25-.53,.37-.12-.45-.24-.89-.36-1.34l-.06,.06Z"/><path class="cls-3" d="M314.74,614.34c-.31-.32-.62-.65-.93-.97,.18-.11,.36-.23,.55-.34,.11,.46,.21,.91,.32,1.37,0,0,.06-.06,.06-.06Z"/><path d="M451.01,248.34c-.17,.44-.27,.7-.37,.97-.3-.22-.62-.42-.88-.67-.34-.33-.24-.66,.22-.67,.34,0,.69,.24,1.03,.37Z"/><path class="cls-3" d="M629.88,625.21c-.32,.31-.65,.61-.97,.92l-.33-.55c.45-.1,.91-.21,1.36-.31,0,0-.06-.06-.06-.06Z"/><path class="cls-3" d="M629.94,625.27c.11-.46,.21-.91,.32-1.37,.18,.11,.36,.23,.55,.34-.31,.32-.62,.65-.93,.97,0,0,.06,.06,.06,.06Z"/><path class="cls-2" d="M601.36,252.66c.22,.32,.46,.63,.65,.97,.02,.04-.29,.25-.45,.38-.11-.41-.22-.82-.34-1.24,0,0,.14-.12,.14-.12Z"/><path d="M657.3,864.91c9.73-1.06,15.81,2.2,16.15,8.14-5.06-3.33-8.96-8.97-16.15-8.14Z"/><path d="M657.92,893.23c.09-7.69-.52-15.3-2.48-22.76,3.44,7.3,3.57,14.97,2.48,22.76Z"/><path d="M645.88,868.63c2.51,4.74,2.31,14.41-.44,18.62,1.7-6.42,1.58-11.9,.44-18.62Z"/><path d="M656.61,896.77c-.55,1.06-1.09,2.11-2.1,4.06-.37-2.55,.13-3.7,2.1-4.06Z"/><path d="M673.94,873.47c1.63,.93,1.61,1.93,.79,3.35-.32-1.35-.56-2.35-.79-3.35Z"/><path d="M654.14,867.79c.44,.7,1.36,1.7,.5,2.16-1.02,.55-.96-.69-.95-1.38,0-.26,.28-.51,.44-.77Z"/><path d="M652.12,902.25c.41-.75,.9-2.17,1.21-2.14,1.38,.17,.26,1.1,.21,1.68-.03,.31-.48,.59-.74,.88-.23-.14-.45-.29-.68-.43Z"/><path d="M650.45,903.83c.64-.55,.96-.46,.91-.02-.04,.34-.34,.69-.61,.94-.08,.08-.45-.16-.69-.25,.19-.33,.38-.65,.39-.67Z"/><path d="M490.36,361.23c-3.37,3.36-7.96,3.87-12.14,4.01-10.94,.37-21.95,.78-32.82-.93-3.82-.6-7.49-2.21-11.14-3.84,18.71,5.41,37.42,5.5,56.21,.87l-.11-.11Z"/><path d="M523.54,315.77c-1.95,5.69-3.91,11.39-5.86,17.08,.41-6.19,2.65-11.79,5.86-17.08Z"/><path d="M490.47,361.34c4.55-1.82,9.1-3.63,13.65-5.45,.15,.42,.29,.84,.44,1.25-4.8,1.15-8.73,4.85-14.19,4.09,0,0,.1,.11,.1,.11Z"/><path d="M515.42,336.88c.13,3.59-.47,6.94-3.65,9.45,1.25-3.11,2.51-6.23,3.76-9.34,0,0-.11-.11-.11-.11Z"/><path d="M515.53,336.99c-.18-1.39-.7-2.81,1.01-4.73-.25,2.06,.25,3.47-1.12,4.61,0,0,.12,.11,.12,.11Z"/><path d="M431.09,359.05c1.17-.65,2.23-.93,3.17,.23-1.21,1.24-2.23-.58-3.17-.23Z"/><path d="M511.13,347.89c-.91,1.35-.64,2.45-1.71,2.36-.72-.06-.35-.63-.18-.98,.25-.52,.57-1,.86-1.5,.32,.22,.9,.3,1.03,.12Z"/><path d="M507.8,353.47c-.48-.33-1.03-.4-.65-1.03,.31-.51,.47-1.12,.84-1.57,.12-.14,.89-.08,.69,.57-.22,.69-.57,1.33-.87,2.04Z"/><path d="M395.6,850.32c4.43-10.77,4.89-23.13,13.21-33.1,.83,3.55,1.51,6.44,2.18,9.34-1.98-1.68-2.31-3.94-2.68-6.25-6.75,9.06-7.47,20.53-12.72,30.02Z"/><path d="M381.27,853.66c.31-8.98-2.09-18.2,2.61-26.81-3.49,8.71-1.32,17.91-2.61,26.81Z"/><path d="M415.95,832.34c-1.81-.17-1.5-1.44-2.05-2.71,1.97,.37,1.43,1.94,2.05,2.71Z"/><path d="M387.3,825.31c-.67,.49-1.31,1.13-2.2,.54-.08-.06,0-.64,.16-.74,.7-.44,1.41-.44,2.05,.2Z"/></g></svg>